<svg width="115" height="27" viewBox="0 0 115 27" fill="none" xmlns="http://www.w3.org/2000/svg">
<path d="M54.176 19L57.912 7.8H58.728L60.704 16.04L64.984 7.8H65.8L66.408 19H65.264L64.808 10.432L60.744 18.264H60.032L58.168 10.432L55.312 19H54.176ZM74.1948 11H75.3788L69.3147 23H68.1227L70.1467 19L68.3947 11H69.6187L70.9147 17.456L74.1948 11ZM75.7635 19L77.3315 7.8H80.9155C81.5128 7.8 82.0302 7.94667 82.4675 8.24C82.9102 8.528 83.2382 8.92 83.4515 9.416C83.6702 9.90667 83.7342 10.4587 83.6435 11.072C83.5582 11.6907 83.3342 12.248 82.9715 12.744C82.6142 13.24 82.1742 13.632 81.6515 13.92C81.1288 14.208 80.5768 14.352 79.9955 14.352H77.5315L76.8835 19H75.7635ZM77.6915 13.232H80.0595C80.4542 13.232 80.8275 13.136 81.1795 12.944C81.5368 12.7467 81.8382 12.4827 82.0835 12.152C82.3288 11.816 82.4782 11.4373 82.5315 11.016C82.5955 10.5947 82.5528 10.2187 82.4035 9.888C82.2542 9.552 82.0275 9.288 81.7235 9.096C81.4248 8.89867 81.0782 8.8 80.6835 8.8H78.3155L77.6915 13.232ZM91.3783 11H92.4983L91.3783 19H90.2583L90.4263 17.512C90.0956 18.0187 89.6716 18.4293 89.1543 18.744C88.6423 19.0533 88.0609 19.208 87.4103 19.208C86.8236 19.208 86.2876 19.0987 85.8023 18.88C85.3223 18.656 84.9143 18.3493 84.5783 17.96C84.2476 17.5707 84.0076 17.12 83.8583 16.608C83.7143 16.096 83.6849 15.5467 83.7703 14.96C83.8503 14.384 84.0316 13.8427 84.3143 13.336C84.6023 12.8293 84.9649 12.384 85.4023 12C85.8396 11.616 86.3249 11.3173 86.8583 11.104C87.3916 10.8853 87.9463 10.776 88.5223 10.776C89.1889 10.776 89.7489 10.936 90.2023 11.256C90.6556 11.5707 90.9916 11.984 91.2103 12.496L91.3783 11ZM87.5383 18.12C88.1089 18.12 88.6183 17.9813 89.0663 17.704C89.5196 17.4213 89.8903 17.0427 90.1783 16.568C90.4663 16.0933 90.6503 15.5707 90.7303 15C90.8156 14.4133 90.7783 13.8853 90.6183 13.416C90.4583 12.9413 90.1916 12.5653 89.8183 12.288C89.4503 12.0107 88.9836 11.872 88.4183 11.872C87.8529 11.872 87.3169 12.0133 86.8103 12.296C86.3036 12.5733 85.8796 12.9493 85.5383 13.424C85.1969 13.8987 84.9863 14.424 84.9063 15C84.8263 15.5813 84.8929 16.1093 85.1063 16.584C85.3196 17.0533 85.6396 17.4267 86.0663 17.704C86.4983 17.9813 86.9889 18.12 87.5383 18.12ZM101.271 7H102.391L100.711 19H99.5912L99.7992 17.504C99.4526 18.016 99.0152 18.4293 98.4872 18.744C97.9592 19.0533 97.3646 19.208 96.7032 19.208C96.1219 19.208 95.5912 19.0987 95.1112 18.88C94.6366 18.6613 94.2339 18.36 93.9032 17.976C93.5726 17.5867 93.3326 17.1387 93.1832 16.632C93.0392 16.1253 93.0072 15.5813 93.0872 15C93.1672 14.4187 93.3512 13.8747 93.6392 13.368C93.9326 12.856 94.2979 12.408 94.7352 12.024C95.1779 11.6347 95.6686 11.3307 96.2072 11.112C96.7459 10.8933 97.3059 10.784 97.8872 10.784C98.5486 10.784 99.0979 10.9413 99.5352 11.256C99.9779 11.5653 100.301 11.9733 100.503 12.48L101.271 7ZM96.8632 18.12C97.4339 18.12 97.9432 17.9813 98.3912 17.704C98.8446 17.4213 99.2152 17.0427 99.5032 16.568C99.7912 16.0933 99.9752 15.5707 100.055 15C100.141 14.4133 100.103 13.8853 99.9432 13.416C99.7832 12.9413 99.5166 12.5653 99.1432 12.288C98.7752 12.0107 98.3086 11.872 97.7432 11.872C97.1779 11.872 96.6419 12.0133 96.1352 12.296C95.6339 12.5733 95.2099 12.9493 94.8632 13.424C94.5219 13.8987 94.3112 14.424 94.2312 15C94.1512 15.5813 94.2179 16.1093 94.4312 16.584C94.6446 17.0533 94.9646 17.4267 95.3912 17.704C95.8232 17.9813 96.3139 18.12 96.8632 18.12ZM106.258 19.208C105.522 19.208 104.876 19.0187 104.322 18.64C103.772 18.2613 103.362 17.7547 103.09 17.12C102.823 16.48 102.743 15.7733 102.85 15C102.93 14.4133 103.108 13.8667 103.386 13.36C103.668 12.848 104.02 12.4 104.442 12.016C104.863 11.6267 105.33 11.3227 105.842 11.104C106.359 10.8853 106.892 10.776 107.442 10.776C108.034 10.776 108.562 10.8933 109.026 11.128C109.495 11.3627 109.879 11.6907 110.178 12.112C110.476 12.5333 110.679 13.0267 110.786 13.592C110.892 14.1573 110.882 14.768 110.754 15.424H103.978C103.967 15.9307 104.063 16.384 104.266 16.784C104.468 17.184 104.754 17.5013 105.122 17.736C105.49 17.9653 105.919 18.0827 106.41 18.088C106.943 18.088 107.444 17.9493 107.914 17.672C108.388 17.3947 108.788 17.0133 109.114 16.528L110.21 16.792C109.788 17.5013 109.223 18.0827 108.514 18.536C107.81 18.984 107.058 19.208 106.258 19.208ZM104.074 14.52H109.754C109.786 14.024 109.698 13.5707 109.49 13.16C109.287 12.744 108.996 12.4133 108.618 12.168C108.239 11.9173 107.802 11.792 107.306 11.792C106.804 11.792 106.332 11.9147 105.89 12.16C105.447 12.4 105.066 12.728 104.746 13.144C104.426 13.5547 104.202 14.0133 104.074 14.52ZM111.759 19L113.439 7H114.559L112.879 19H111.759Z" fill="#FAFAFA"/>
<path d="M5.46875 14.0078H2.54688L2.53125 12.3984H4.98438C5.41667 12.3984 5.77083 12.3438 6.04688 12.2344C6.32292 12.1198 6.52865 11.9557 6.66406 11.7422C6.80469 11.5234 6.875 11.2578 6.875 10.9453C6.875 10.5911 6.80729 10.3047 6.67188 10.0859C6.54167 9.86719 6.33594 9.70833 6.05469 9.60938C5.77865 9.51042 5.42188 9.46094 4.98438 9.46094H3.35938V19H1.01562V7.625H4.98438C5.64583 7.625 6.23698 7.6875 6.75781 7.8125C7.28385 7.9375 7.72917 8.1276 8.09375 8.38281C8.45833 8.63802 8.73698 8.96094 8.92969 9.35156C9.1224 9.73698 9.21875 10.1953 9.21875 10.7266C9.21875 11.1953 9.11198 11.6276 8.89844 12.0234C8.6901 12.4193 8.35938 12.7422 7.90625 12.9922C7.45833 13.2422 6.8724 13.3802 6.14844 13.4062L5.46875 14.0078ZM5.36719 19H1.90625L2.82031 17.1719H5.36719C5.77865 17.1719 6.11458 17.1068 6.375 16.9766C6.63542 16.8411 6.82812 16.6589 6.95312 16.4297C7.07812 16.2005 7.14062 15.9375 7.14062 15.6406C7.14062 15.3073 7.08333 15.0182 6.96875 14.7734C6.85938 14.5286 6.68229 14.3411 6.4375 14.2109C6.19271 14.0755 5.86979 14.0078 5.46875 14.0078H3.21094L3.22656 12.3984H6.03906L6.57812 13.0312C7.27083 13.0208 7.82812 13.1432 8.25 13.3984C8.67708 13.6484 8.98698 13.974 9.17969 14.375C9.3776 14.776 9.47656 15.2057 9.47656 15.6641C9.47656 16.3932 9.31771 17.0078 9 17.5078C8.68229 18.0026 8.21615 18.375 7.60156 18.625C6.99219 18.875 6.2474 19 5.36719 19ZM10.9344 14.8594V14.6953C10.9344 14.0755 11.0229 13.5052 11.2 12.9844C11.3771 12.4583 11.6349 12.0026 11.9734 11.6172C12.312 11.2318 12.7286 10.9323 13.2234 10.7188C13.7182 10.5 14.2859 10.3906 14.9266 10.3906C15.5672 10.3906 16.1375 10.5 16.6375 10.7188C17.1375 10.9323 17.5568 11.2318 17.8953 11.6172C18.2391 12.0026 18.4995 12.4583 18.6766 12.9844C18.8536 13.5052 18.9422 14.0755 18.9422 14.6953V14.8594C18.9422 15.474 18.8536 16.0443 18.6766 16.5703C18.4995 17.0911 18.2391 17.5469 17.8953 17.9375C17.5568 18.3229 17.1401 18.6224 16.6453 18.8359C16.1505 19.0495 15.5828 19.1562 14.9422 19.1562C14.3016 19.1562 13.7312 19.0495 13.2312 18.8359C12.7365 18.6224 12.3172 18.3229 11.9734 17.9375C11.6349 17.5469 11.3771 17.0911 11.2 16.5703C11.0229 16.0443 10.9344 15.474 10.9344 14.8594ZM13.1844 14.6953V14.8594C13.1844 15.2135 13.2156 15.5443 13.2781 15.8516C13.3406 16.1589 13.4396 16.4297 13.575 16.6641C13.7156 16.8932 13.8979 17.0729 14.1219 17.2031C14.3458 17.3333 14.6193 17.3984 14.9422 17.3984C15.2547 17.3984 15.5229 17.3333 15.7469 17.2031C15.9708 17.0729 16.1505 16.8932 16.2859 16.6641C16.4214 16.4297 16.5203 16.1589 16.5828 15.8516C16.6505 15.5443 16.6844 15.2135 16.6844 14.8594V14.6953C16.6844 14.3516 16.6505 14.0286 16.5828 13.7266C16.5203 13.4193 16.4187 13.1484 16.2781 12.9141C16.1427 12.6745 15.963 12.487 15.7391 12.3516C15.5151 12.2161 15.2443 12.1484 14.9266 12.1484C14.6089 12.1484 14.338 12.2161 14.1141 12.3516C13.8953 12.487 13.7156 12.6745 13.575 12.9141C13.4396 13.1484 13.3406 13.4193 13.2781 13.7266C13.2156 14.0286 13.1844 14.3516 13.1844 14.6953ZM20.1656 14.8594V14.6953C20.1656 14.0755 20.2542 13.5052 20.4312 12.9844C20.6083 12.4583 20.8661 12.0026 21.2047 11.6172C21.5432 11.2318 21.9599 10.9323 22.4547 10.7188C22.9495 10.5 23.5172 10.3906 24.1578 10.3906C24.7984 10.3906 25.3687 10.5 25.8687 10.7188C26.3687 10.9323 26.788 11.2318 27.1266 11.6172C27.4703 12.0026 27.7307 12.4583 27.9078 12.9844C28.0849 13.5052 28.1734 14.0755 28.1734 14.6953V14.8594C28.1734 15.474 28.0849 16.0443 27.9078 16.5703C27.7307 17.0911 27.4703 17.5469 27.1266 17.9375C26.788 18.3229 26.3714 18.6224 25.8766 18.8359C25.3818 19.0495 24.8141 19.1562 24.1734 19.1562C23.5328 19.1562 22.9625 19.0495 22.4625 18.8359C21.9677 18.6224 21.5484 18.3229 21.2047 17.9375C20.8661 17.5469 20.6083 17.0911 20.4312 16.5703C20.2542 16.0443 20.1656 15.474 20.1656 14.8594ZM22.4156 14.6953V14.8594C22.4156 15.2135 22.4469 15.5443 22.5094 15.8516C22.5719 16.1589 22.6708 16.4297 22.8062 16.6641C22.9469 16.8932 23.1292 17.0729 23.3531 17.2031C23.5771 17.3333 23.8505 17.3984 24.1734 17.3984C24.4859 17.3984 24.7542 17.3333 24.9781 17.2031C25.2021 17.0729 25.3818 16.8932 25.5172 16.6641C25.6526 16.4297 25.7516 16.1589 25.8141 15.8516C25.8818 15.5443 25.9156 15.2135 25.9156 14.8594V14.6953C25.9156 14.3516 25.8818 14.0286 25.8141 13.7266C25.7516 13.4193 25.65 13.1484 25.5094 12.9141C25.374 12.6745 25.1943 12.487 24.9703 12.3516C24.7464 12.2161 24.4755 12.1484 24.1578 12.1484C23.8401 12.1484 23.5693 12.2161 23.3453 12.3516C23.1266 12.487 22.9469 12.6745 22.8062 12.9141C22.6708 13.1484 22.5719 13.4193 22.5094 13.7266C22.4469 14.0286 22.4156 14.3516 22.4156 14.6953ZM32.0063 6.99219V19H29.7563V6.99219H32.0063ZM37.3344 10.5469L33.6625 14.7344L31.6938 16.7266L30.8734 15.1016L32.4359 13.1172L34.6313 10.5469H37.3344ZM34.9984 19L32.4984 15.0938L34.0531 13.7344L37.5922 19H34.9984ZM44.5156 7.625V21.1094H43.1719V7.625H44.5156Z" fill="url(#paint0_linear_406_527)"/>
<defs>
<linearGradient id="paint0_linear_406_527" x1="23.5" y1="1" x2="23.5" y2="27" gradientUnits="userSpaceOnUse">
<stop stop-color="#99FECE"/>
<stop offset="1" stop-color="#99E3FF"/>
</linearGradient>
</defs>
</svg>
